<?xml version="1.0" encoding="UTF-8" standalone="no"?>
<!-- Created with Inkscape (http://www.inkscape.org/) -->

<svg
   width="400"
   height="400"
   viewBox="0 0 105.83333 105.83333"
   version="1.1"
   id="svg5"
   inkscape:version="1.2.1 (9c6d41e410, 2022-07-14)"
   sodipodi:docname="sb-symbol.svg"
   inkscape:export-filename="sb-symbol.png"
   inkscape:export-xdpi="96"
   inkscape:export-ydpi="96"
   xmlns:inkscape="http://www.inkscape.org/namespaces/inkscape"
   xmlns:sodipodi="http://sodipodi.sourceforge.net/DTD/sodipodi-0.dtd"
   xmlns="http://www.w3.org/2000/svg"
   xmlns:svg="http://www.w3.org/2000/svg">
  <sodipodi:namedview
     id="namedview7"
     pagecolor="#ffffff"
     bordercolor="#000000"
     borderopacity="0.25"
     inkscape:showpageshadow="2"
     inkscape:pageopacity="0.0"
     inkscape:pagecheckerboard="0"
     inkscape:deskcolor="#d1d1d1"
     inkscape:document-units="mm"
     showgrid="false"
     showguides="true"
     inkscape:zoom="1.4770342"
     inkscape:cx="123.21989"
     inkscape:cy="134.72944"
     inkscape:window-width="1920"
     inkscape:window-height="1009"
     inkscape:window-x="-8"
     inkscape:window-y="-8"
     inkscape:window-maximized="1"
     inkscape:current-layer="layer1">
    <sodipodi:guide
       position="31.706272,18.238037"
       orientation="0,-1"
       id="guide113"
       inkscape:locked="false" />
    <sodipodi:guide
       position="36.901085,83.441895"
       orientation="0,-1"
       id="guide115"
       inkscape:locked="false" />
    <sodipodi:guide
       position="52.946005,71.887088"
       orientation="1,0"
       id="guide3215"
       inkscape:locked="false" />
  </sodipodi:namedview>
  <defs
     id="defs2">
    <linearGradient
       id="linearGradient3047"
       inkscape:swatch="solid">
      <stop
         style="stop-color:#000000;stop-opacity:1;"
         offset="0"
         id="stop3045" />
    </linearGradient>
  </defs>
  <g
     inkscape:label="Layer 1"
     inkscape:groupmode="layer"
     id="layer1">
    <path
       style="fill:#006400;fill-opacity:1;stroke:none;stroke-width:0.840356;stroke-linecap:round;stroke-linejoin:round;stroke-dasharray:none;stroke-opacity:1;paint-order:normal"
       id="path4820"
       d="m 2.2080063,85.10389 c 0.693279,-0.310635 0.8390755,-0.366771 1.6365539,-0.786084 3.7935442,-1.994647 7.5144918,-4.169218 10.9242818,-6.763939 1.415948,-1.077484 2.768649,-2.233947 4.152973,-3.350921 1.611056,-1.529535 3.270982,-3.010242 4.833165,-4.588612 4.627418,-4.67536 8.929145,-9.728027 12.621609,-15.162705 2.63068,-3.871906 3.067139,-4.950623 5.18911,-8.963233 2.021645,-4.229539 3.576816,-8.678087 4.31787,-13.306919 0.291139,-1.818528 0.279288,-2.274369 0.382018,-4.012384 0.03794,-1.239115 -0.04607,-2.480632 -0.300196,-3.695684 -0.07849,-0.375286 -0.23569,-1.033201 -0.466762,-1.378334 -0.101403,-0.151452 -0.260492,-0.256113 -0.390737,-0.384171 -0.183303,-0.05006 -0.359779,-0.14695 -0.549912,-0.150188 -0.224818,-0.0039 -0.46206,0.02726 -0.661715,0.129562 -1.383463,0.708904 -2.741879,1.469247 -4.06053,2.290173 -0.299122,0.186219 -0.532806,0.461519 -0.772379,0.718556 -0.815916,0.875388 -0.942489,1.186097 -1.605284,2.224481 -1.508824,2.691581 -2.447959,5.647785 -2.870456,8.693809 -0.109969,0.792837 -0.162087,1.592479 -0.243131,2.38872 -0.243911,5.098276 0.500367,10.189141 1.562774,15.166786 0.247718,1.160616 0.53921,2.31167 0.808816,3.467506 1.04983,4.390831 2.342333,8.719885 3.455562,13.094383 0.730851,2.871924 0.729857,2.999674 1.330226,5.821979 0.368473,2.062124 0.833953,4.137572 0.847314,6.243725 0.005,0.803164 -0.05869,1.699429 -0.384764,2.454949 -0.127001,0.294264 -0.347143,0.539974 -0.520714,0.809959 -0.267134,0.18612 -1.069348,0.743335 -0.801402,0.558363 0.73004,-0.503987 1.794898,-0.72509 2.187695,-1.515386 0.220192,-0.443016 -0.993727,0.13373 -1.492466,0.116606 -0.669035,-0.02298 -1.334998,-0.120164 -1.99406,-0.23632 -1.662822,-0.293065 -3.245272,-0.77677 -4.868471,-1.227298 -2.277349,-0.694209 -4.534605,-1.47066 -6.696398,-2.468883 -1.427803,-0.659299 -1.789687,-0.902769 -3.09417,-1.652944 l -3.240605,2.079067 v 0 c 1.310033,0.764124 1.685392,1.019087 3.119383,1.690906 2.169148,1.016239 4.437193,1.80503 6.725593,2.511648 1.657144,0.46779 3.208169,0.945162 4.900191,1.272393 0.477691,0.09237 2.915913,0.515377 3.590273,0.258229 3.64365,-1.389409 3.453033,-1.339091 5.192625,-2.941236 0.15861,-0.302012 0.360338,-0.585444 0.475828,-0.906031 0.290604,-0.806712 0.345894,-1.717163 0.331528,-2.560648 -0.03616,-2.122526 -0.494252,-4.213408 -0.873113,-6.292171 -0.606639,-2.836778 -0.603459,-2.952192 -1.339195,-5.838428 -1.11406,-4.370387 -2.403007,-8.696448 -3.449939,-13.084098 -0.267303,-1.151587 -0.55651,-2.298411 -0.801912,-3.454758 -1.049463,-4.945132 -1.784232,-10.004335 -1.511152,-15.067602 0.08538,-0.787519 0.141587,-1.578671 0.256141,-2.362557 0.439322,-3.006264 1.396345,-5.923039 2.934874,-8.556094 0.655319,-0.965791 0.827902,-1.335037 1.645977,-2.129258 0.246514,-0.239327 1.115491,-0.789029 0.798569,-0.653181 -0.908195,0.389294 -1.741773,0.9313 -2.597065,1.424098 -0.179573,0.103465 0.369587,-0.192832 0.567721,-0.25484 0.132615,-0.0415 0.275939,-0.03493 0.413909,-0.05238 0.102613,0.08177 0.233544,0.137642 0.307847,0.245286 0.206911,0.299766 0.359017,0.984036 0.421052,1.295542 0.237281,1.191518 0.306128,2.406967 0.26039,3.619361 -0.112845,1.709395 -0.106182,2.181951 -0.40373,3.968882 -0.765382,4.596491 -2.337085,9.009912 -4.366227,13.204673 -2.136628,3.997036 -2.569512,5.056019 -5.211398,8.913284 -3.706256,5.411293 -8.011979,10.448514 -12.648798,15.098989 -1.565369,1.569977 -3.229946,3.040026 -4.844919,4.560038 -1.387458,1.109189 -2.774918,2.218377 -4.162375,3.327566 -1.125594,0.784143 -2.2951238,1.509944 -3.3767811,2.352429 -0.2210166,0.172146 0.9472402,-0.671317 0.7131108,-0.517064 -1.0418354,0.686398 -2.1579359,1.388178 -3.2770883,1.939251 l -3.0271351,2.373158 z"
       sodipodi:nodetypes="ssscsscscsscccsscscscsccscsssscsccsscsscsscscscscsssscsscscssccssccs" />
    <path
       style="fill:#006400;fill-opacity:1;stroke:none;stroke-width:0.887169;stroke-linecap:round;stroke-linejoin:round;stroke-dasharray:none;stroke-opacity:1;paint-order:normal"
       id="path4826"
       d="m 58.511759,86.06523 c 0.398487,-0.875044 0.706096,-1.531123 1.077994,-2.465372 0.775275,-1.947576 1.403162,-3.76715 2.083848,-5.769184 0.722298,-2.124417 2.373506,-7.157349 3.022691,-9.128482 1.804664,-5.435033 3.63974,-10.860685 5.57904,-16.25141 1.051319,-2.922378 2.376305,-6.545698 3.570139,-9.442425 0.554282,-1.344908 1.162446,-2.667964 1.743667,-4.001945 1.897715,-3.89991 3.859701,-7.886275 6.906942,-11.077192 1.37947,-1.444512 1.963011,-1.771251 3.52737,-2.912826 0.512346,-0.306944 2.04717,-1.231293 1.537044,-0.920831 -0.744266,0.452959 -1.586793,0.775978 -2.239468,1.348326 -0.272452,0.23892 0.688398,-0.266186 1.051933,-0.306945 0.303814,-0.03406 0.62743,-0.02005 0.913126,0.08662 1.020143,0.380915 1.084501,1.012995 1.581474,1.936014 0.157894,0.655546 0.388167,1.298361 0.473681,1.966639 0.474379,3.707149 -0.7008,7.485196 -2.365426,10.771243 -0.487414,0.962181 -1.08149,1.869046 -1.622237,2.80357 -1.598787,2.376476 -3.606315,4.41727 -5.977434,6.063137 -0.631467,0.43832 -1.258467,0.907373 -1.972863,1.199504 -0.634537,0.259478 1.571541,-0.09453 1.827172,-0.71906 0.205354,-0.501693 -1.118979,0.03085 -1.629772,0.236804 -0.417517,0.13513 -0.832624,0.277601 -1.252547,0.405395 -0.319395,0.0972 -0.646287,0.169939 -0.96494,0.269443 -1.495674,0.467041 -3.113022,1.666327 -3.969589,2.654416 -0.211668,0.244169 0.518293,0.398987 0.812555,0.539123 0.484436,0.230708 1.006054,0.377684 1.509082,0.566524 5.096792,1.650432 10.173659,3.573716 14.594284,6.616423 0.89415,0.615439 1.713901,1.328285 2.570853,1.99243 0.667908,0.668213 1.402605,1.278282 2.003727,2.004643 1.486597,1.796319 2.395146,3.941859 1.865008,6.283085 -0.463048,2.044939 -1.187316,2.482506 -2.53969,4.064715 -0.80828,0.579845 -1.603982,1.176849 -2.424838,1.739537 -0.187319,0.1284 0.738925,-0.507157 0.522283,-0.435368 -1.142355,0.378542 -2.207231,0.955327 -3.33712,1.368119 -2.028934,0.741251 -4.572942,1.482537 -6.709777,1.887314 -1.019951,0.193209 -2.058045,0.279619 -3.087068,0.419426 -2.649928,0.246305 -5.278087,-0.048 -7.874656,-0.553818 -0.686219,-0.13368 -1.363579,-0.307694 -2.045366,-0.461542 l -3.372164,2.282277 v 0 c 0.686092,0.159893 1.367739,0.339272 2.058275,0.479679 2.617509,0.53222 5.269129,0.869435 7.948501,0.653692 1.037574,-0.128731 2.083938,-0.201941 3.11272,-0.386194 2.146199,-0.384379 4.708222,-1.11442 6.748857,-1.838031 1.137519,-0.403365 2.284554,-0.799684 3.362945,-1.336395 2.20907,-1.099444 4.377392,-2.28313 6.482155,-3.563474 0.858495,-0.522231 1.590773,-1.220801 2.38616,-1.831199 1.337627,-1.710178 2.023589,-2.14704 2.428088,-4.299003 0.459158,-2.442741 -0.483301,-4.688337 -2.025065,-6.564061 C 95.794141,61.697397 95.049338,61.07342 94.372332,60.390843 93.507398,59.714422 92.68035,58.988846 91.777526,58.36158 87.351997,55.286802 82.26103,53.31935 77.136615,51.675899 c -0.493099,-0.174216 -0.984952,-0.351847 -1.4793,-0.522643 -0.201624,-0.06966 -0.411879,-0.280936 -0.608484,-0.198689 -1.214248,0.507953 -2.310249,1.252533 -3.454093,1.898181 -0.172045,0.09711 0.349593,-0.188605 0.53741,-0.25185 0.737061,-0.248202 1.529279,-0.321163 2.24514,-0.640052 3.214135,-1.221058 1.863566,-0.629941 6.848049,-3.450489 1.430757,-0.809617 2.77246,-1.770113 3.981297,-2.874582 2.066656,-1.888228 2.198826,-2.299834 3.890759,-4.57136 0.534485,-0.948021 1.123784,-1.868393 1.603457,-2.844062 1.656205,-3.368756 2.787838,-7.229795 2.248802,-10.999642 -0.09994,-0.698899 -0.348992,-1.369498 -0.523492,-2.054247 -0.590151,-1.080299 -0.662712,-1.706952 -1.78402,-2.247781 -0.636514,-0.307005 -1.489496,-0.286985 -2.120247,0.01801 -3.016066,1.458391 -4.005035,2.12126 -6.307704,3.564808 -1.565041,1.191623 -2.111932,1.508273 -3.490841,2.999512 -3.006738,3.251684 -4.968589,7.254019 -6.859756,11.181418 -0.579105,1.338463 -1.184311,2.666406 -1.737314,4.015388 -1.187607,2.897014 -2.515693,6.533303 -3.564585,9.454074 -1.936943,5.39366 -3.770963,10.821779 -5.5754,16.258996 -0.694389,2.106951 -2.260819,6.882998 -3.025788,9.12203 -0.702538,2.056287 -1.296435,3.763826 -2.09563,5.744378 -0.421456,1.044452 -0.651209,1.509171 -1.089221,2.44131 z"
       sodipodi:nodetypes="ssscsscscsssscsscssscsssscscsscsssscsccsscsssscsscscsssscsscsscsscscsscssccs" />
  </g>
</svg>
